<svg xmlns="http://www.w3.org/2000/svg" xmlns:xlink="http://www.w3.org/1999/xlink" xmlns:sketch="http://www.bohemiancoding.com/sketch/ns" viewBox="0 0 100 100" version="1.1" x="0px" y="0px"><title>Card</title><desc>Created with Sketch.</desc><g stroke="none" stroke-width="1" fill="none" fill-rule="evenodd" sketch:type="MSPage"><g sketch:type="MSArtboardGroup" fill="#000000"><path d="M11.0098334,14 C7.69069406,14 5,16.6798602 5,19.9984212 L5,78.0015788 C5,81.3144154 7.69352123,84 11.0098334,84 L88.9901666,84 C92.3093059,84 95,81.3201398 95,78.0015788 L95,19.9984212 C95,16.6855846 92.3064788,14 88.9901666,14 L11.0098334,14 Z M11.9974983,19 C10.8943104,19 10,19.8947304 10,20.9963074 L10,77.0036926 C10,78.1062227 10.8984375,79 11.9974983,79 L88.0025017,79 C89.1056896,79 90,78.1052696 90,77.0036926 L90,20.9963074 C90,19.8937773 89.1015625,19 88.0025017,19 L11.9974983,19 Z M19,34 L19,40 L81,40 L81,34 L19,34 Z M19,50 L19,56 L68,56 L68,50 L19,50 Z" sketch:type="MSShapeGroup"></path></g></g></svg>